# xmcd
#
# Track frame offsets:
#	150
#	15605
#	30607
#	47415
#
# Disc length: 832 seconds
#
# Revision: 0
# Processed by: cddbd v1.4PL0 Copyright (c) Steve Scherf et al.
# Submitted via: audiograbber 1.81.03
#
DISCID=23033e04
DTITLE=Ö La Palöma Boys - Ö Tannenbaum
DYEAR=1900
DGENRE=
TTITLE0=Gö, tell it from the mountain
TTITLE1=Ö Tannenbaum
TTITLE2=Snowman, little Snowman
TTITLE3=White Christmas
EXTD=
EXTT0=
EXTT1=
EXTT2=
EXTT3=
PLAYORDER=
